<svg width="477" height="99" viewBox="0 0 477 99" fill="none" xmlns="http://www.w3.org/2000/svg">
<path d="M172.703 50.236C172.703 53.3487 172.21 56.21 171.224 58.82C170.238 61.4107 168.846 63.6437 167.048 65.519C165.25 67.3943 163.085 68.854 160.552 69.898C158.039 70.9227 155.255 71.435 152.2 71.435C149.145 71.435 146.361 70.9227 143.848 69.898C141.335 68.854 139.179 67.3943 137.381 65.519C135.583 63.6437 134.191 61.4107 133.205 58.82C132.219 56.21 131.726 53.3487 131.726 50.236C131.726 47.1233 132.219 44.2717 133.205 41.681C134.191 39.071 135.583 36.8283 137.381 34.953C139.179 33.0583 141.335 31.589 143.848 30.545C146.361 29.501 149.145 28.979 152.2 28.979C155.255 28.979 158.039 29.501 160.552 30.545C163.085 31.589 165.25 33.0583 167.048 34.953C168.846 36.8283 170.238 39.071 171.224 41.681C172.21 44.2717 172.703 47.1233 172.703 50.236ZM166.932 50.236C166.932 47.684 166.584 45.393 165.888 43.363C165.192 41.333 164.206 39.622 162.93 38.23C161.654 36.8187 160.107 35.736 158.29 34.982C156.473 34.228 154.443 33.851 152.2 33.851C149.977 33.851 147.956 34.228 146.139 34.982C144.322 35.736 142.765 36.8187 141.47 38.23C140.194 39.622 139.208 41.333 138.512 43.363C137.816 45.393 137.468 47.684 137.468 50.236C137.468 52.788 137.816 55.079 138.512 57.109C139.208 59.1197 140.194 60.8307 141.47 62.242C142.765 63.634 144.322 64.707 146.139 65.461C147.956 66.1957 149.977 66.563 152.2 66.563C154.443 66.563 156.473 66.1957 158.29 65.461C160.107 64.707 161.654 63.634 162.93 62.242C164.206 60.8307 165.192 59.1197 165.888 57.109C166.584 55.079 166.932 52.788 166.932 50.236ZM183.869 47.51C184.797 45.4993 185.938 43.9333 187.291 42.812C188.644 41.6713 190.297 41.101 192.25 41.101C192.869 41.101 193.458 41.1687 194.019 41.304C194.599 41.4393 195.111 41.652 195.556 41.942L195.179 45.799C195.063 46.2823 194.773 46.524 194.309 46.524C194.038 46.524 193.642 46.466 193.12 46.35C192.598 46.234 192.008 46.176 191.351 46.176C190.423 46.176 189.592 46.3113 188.857 46.582C188.142 46.8527 187.494 47.2587 186.914 47.8C186.353 48.322 185.841 48.9793 185.377 49.772C184.932 50.5453 184.526 51.4347 184.159 52.44V71H178.968V41.623H181.926C182.487 41.623 182.873 41.7293 183.086 41.942C183.299 42.1547 183.444 42.522 183.521 43.044L183.869 47.51ZM215.563 57.776C213.185 57.8533 211.155 58.0467 209.473 58.356C207.81 58.646 206.447 59.0327 205.384 59.516C204.34 59.9993 203.576 60.5697 203.093 61.227C202.629 61.8843 202.397 62.619 202.397 63.431C202.397 64.2043 202.522 64.8713 202.774 65.432C203.025 65.9927 203.363 66.4567 203.789 66.824C204.233 67.172 204.746 67.433 205.326 67.607C205.925 67.7617 206.563 67.839 207.24 67.839C208.148 67.839 208.98 67.752 209.734 67.578C210.488 67.3847 211.193 67.114 211.851 66.766C212.527 66.418 213.165 66.0023 213.765 65.519C214.383 65.0357 214.983 64.4847 215.563 63.866V57.776ZM198.888 45.77C200.512 44.204 202.261 43.0343 204.137 42.261C206.012 41.4877 208.09 41.101 210.372 41.101C212.015 41.101 213.475 41.3717 214.751 41.913C216.027 42.4543 217.1 43.2083 217.97 44.175C218.84 45.1417 219.497 46.3113 219.942 47.684C220.386 49.0567 220.609 50.5647 220.609 52.208V71H218.318C217.815 71 217.428 70.9227 217.158 70.768C216.887 70.594 216.674 70.2653 216.52 69.782L215.94 66.998C215.166 67.7133 214.412 68.3513 213.678 68.912C212.943 69.4533 212.17 69.9173 211.358 70.304C210.546 70.6713 209.676 70.9517 208.748 71.145C207.839 71.3577 206.824 71.464 205.703 71.464C204.562 71.464 203.489 71.3093 202.484 71C201.478 70.6713 200.599 70.188 199.845 69.55C199.11 68.912 198.52 68.1097 198.076 67.143C197.65 66.157 197.438 64.997 197.438 63.663C197.438 62.503 197.757 61.3913 198.395 60.328C199.033 59.2453 200.067 58.2883 201.498 57.457C202.928 56.6257 204.794 55.949 207.095 55.427C209.395 54.8857 212.218 54.5763 215.563 54.499V52.208C215.563 49.9267 215.07 48.206 214.084 47.046C213.098 45.8667 211.657 45.277 209.763 45.277C208.487 45.277 207.414 45.4413 206.544 45.77C205.693 46.0793 204.949 46.437 204.311 46.843C203.692 47.2297 203.151 47.5873 202.687 47.916C202.242 48.2253 201.797 48.38 201.353 48.38C201.005 48.38 200.705 48.293 200.454 48.119C200.202 47.9257 199.99 47.6937 199.816 47.423L198.888 45.77ZM233.344 45.886C233.982 45.1707 234.658 44.523 235.374 43.943C236.089 43.363 236.843 42.87 237.636 42.464C238.448 42.0387 239.298 41.7197 240.188 41.507C241.096 41.275 242.073 41.159 243.117 41.159C244.721 41.159 246.133 41.4297 247.351 41.971C248.588 42.493 249.613 43.247 250.425 44.233C251.256 45.1997 251.884 46.3693 252.31 47.742C252.735 49.1147 252.948 50.6323 252.948 52.295V71H247.757V52.295C247.757 50.0717 247.244 48.351 246.22 47.133C245.214 45.8957 243.677 45.277 241.609 45.277C240.081 45.277 238.651 45.6443 237.317 46.379C236.002 47.1137 234.784 48.1093 233.663 49.366V71H228.472V41.623H231.575C232.309 41.623 232.764 41.9807 232.938 42.696L233.344 45.886ZM271.051 56.645C272.095 56.645 273.013 56.5 273.806 56.21C274.598 55.92 275.265 55.514 275.807 54.992C276.348 54.47 276.754 53.8513 277.025 53.136C277.295 52.4013 277.431 51.599 277.431 50.729C277.431 48.931 276.88 47.5003 275.778 46.437C274.695 45.3737 273.119 44.842 271.051 44.842C268.963 44.842 267.368 45.3737 266.266 46.437C265.183 47.5003 264.642 48.931 264.642 50.729C264.642 51.599 264.777 52.4013 265.048 53.136C265.338 53.8513 265.753 54.47 266.295 54.992C266.836 55.514 267.503 55.92 268.296 56.21C269.088 56.5 270.007 56.645 271.051 56.645ZM280.36 72.595C280.36 71.8797 280.157 71.2997 279.751 70.855C279.345 70.4103 278.794 70.0623 278.098 69.811C277.421 69.5597 276.628 69.3857 275.72 69.289C274.811 69.173 273.844 69.086 272.82 69.028C271.814 68.97 270.79 68.912 269.746 68.854C268.702 68.796 267.696 68.6993 266.73 68.564C265.647 69.0667 264.758 69.7047 264.062 70.478C263.385 71.232 263.047 72.1213 263.047 73.146C263.047 73.8033 263.211 74.4123 263.54 74.973C263.888 75.553 264.41 76.046 265.106 76.452C265.802 76.8773 266.672 77.206 267.716 77.438C268.779 77.6893 270.026 77.815 271.457 77.815C272.849 77.815 274.096 77.6893 275.198 77.438C276.3 77.1867 277.228 76.829 277.982 76.365C278.755 75.901 279.345 75.35 279.751 74.712C280.157 74.074 280.36 73.3683 280.36 72.595ZM285.609 42.783V44.697C285.609 45.335 285.203 45.741 284.391 45.915L281.056 46.35C281.713 47.626 282.042 49.0373 282.042 50.584C282.042 52.0147 281.761 53.3197 281.201 54.499C280.659 55.659 279.905 56.6547 278.939 57.486C277.972 58.3173 276.812 58.9553 275.459 59.4C274.105 59.8447 272.636 60.067 271.051 60.067C269.678 60.067 268.383 59.9027 267.165 59.574C266.546 59.9607 266.072 60.3763 265.744 60.821C265.415 61.2463 265.251 61.6813 265.251 62.126C265.251 62.822 265.531 63.3537 266.092 63.721C266.672 64.069 267.426 64.3203 268.354 64.475C269.282 64.6297 270.335 64.7263 271.515 64.765C272.713 64.8037 273.931 64.8713 275.169 64.968C276.425 65.0453 277.643 65.1903 278.823 65.403C280.021 65.6157 281.085 65.9637 282.013 66.447C282.941 66.9303 283.685 67.5973 284.246 68.448C284.826 69.2987 285.116 70.4007 285.116 71.754C285.116 73.0107 284.797 74.2287 284.159 75.408C283.54 76.5873 282.641 77.6313 281.462 78.54C280.282 79.468 278.832 80.2027 277.112 80.744C275.41 81.3047 273.487 81.585 271.341 81.585C269.195 81.585 267.319 81.3723 265.715 80.947C264.11 80.5217 262.776 79.9513 261.713 79.236C260.649 78.5207 259.847 77.6893 259.306 76.742C258.784 75.814 258.523 74.8377 258.523 73.813C258.523 72.363 258.977 71.1353 259.886 70.13C260.794 69.1247 262.041 68.3223 263.627 67.723C262.757 67.3363 262.061 66.824 261.539 66.186C261.036 65.5287 260.785 64.649 260.785 63.547C260.785 63.1217 260.862 62.6867 261.017 62.242C261.171 61.778 261.403 61.3237 261.713 60.879C262.041 60.415 262.438 59.98 262.902 59.574C263.366 59.168 263.907 58.8103 264.526 58.501C263.076 57.689 261.945 56.616 261.133 55.282C260.321 53.9287 259.915 52.3627 259.915 50.584C259.915 49.1533 260.185 47.858 260.727 46.698C261.287 45.5187 262.061 44.523 263.047 43.711C264.033 42.8797 265.202 42.2417 266.556 41.797C267.928 41.3523 269.427 41.13 271.051 41.13C272.327 41.13 273.516 41.275 274.618 41.565C275.72 41.8357 276.725 42.2417 277.634 42.783H285.609ZM310.155 53.107C310.155 51.9083 309.981 50.816 309.633 49.83C309.305 48.8247 308.812 47.9643 308.154 47.249C307.516 46.5143 306.733 45.9537 305.805 45.567C304.877 45.161 303.824 44.958 302.644 44.958C300.17 44.958 298.207 45.683 296.757 47.133C295.327 48.5637 294.437 50.555 294.089 53.107H310.155ZM314.331 66.882C313.693 67.6553 312.93 68.332 312.04 68.912C311.151 69.4727 310.194 69.9367 309.169 70.304C308.164 70.6713 307.12 70.942 306.037 71.116C304.955 71.3093 303.882 71.406 302.818 71.406C300.788 71.406 298.913 71.0677 297.192 70.391C295.491 69.695 294.012 68.6897 292.755 67.375C291.518 66.041 290.551 64.3977 289.855 62.445C289.159 60.4923 288.811 58.2497 288.811 55.717C288.811 53.6677 289.121 51.7537 289.739 49.975C290.377 48.1963 291.286 46.6593 292.465 45.364C293.645 44.0493 295.085 43.0247 296.786 42.29C298.488 41.536 300.402 41.159 302.528 41.159C304.288 41.159 305.912 41.4587 307.4 42.058C308.908 42.638 310.204 43.4887 311.286 44.61C312.388 45.712 313.249 47.0847 313.867 48.728C314.486 50.352 314.795 52.208 314.795 54.296C314.795 55.108 314.708 55.6493 314.534 55.92C314.36 56.1907 314.032 56.326 313.548 56.326H293.915C293.973 58.182 294.225 59.7963 294.669 61.169C295.133 62.5417 295.771 63.692 296.583 64.62C297.395 65.5287 298.362 66.215 299.483 66.679C300.605 67.1237 301.861 67.346 303.253 67.346C304.549 67.346 305.66 67.201 306.588 66.911C307.536 66.6017 308.348 66.273 309.024 65.925C309.701 65.577 310.262 65.258 310.706 64.968C311.17 64.6587 311.567 64.504 311.895 64.504C312.321 64.504 312.649 64.6683 312.881 64.997L314.331 66.882ZM357.714 35.939C357.54 36.229 357.347 36.4513 357.134 36.606C356.941 36.7413 356.699 36.809 356.409 36.809C356.081 36.809 355.694 36.6447 355.249 36.316C354.805 35.9873 354.244 35.6297 353.567 35.243C352.91 34.837 352.108 34.4697 351.16 34.141C350.232 33.8123 349.101 33.648 347.767 33.648C346.511 33.648 345.399 33.822 344.432 34.17C343.485 34.4987 342.683 34.953 342.025 35.533C341.387 36.113 340.904 36.7993 340.575 37.592C340.247 38.3653 340.082 39.2063 340.082 40.115C340.082 41.275 340.363 42.2417 340.923 43.015C341.503 43.769 342.257 44.4167 343.185 44.958C344.133 45.4993 345.196 45.973 346.375 46.379C347.574 46.7657 348.792 47.1717 350.029 47.597C351.286 48.0223 352.504 48.5057 353.683 49.047C354.882 49.569 355.945 50.236 356.873 51.048C357.821 51.86 358.575 52.8557 359.135 54.035C359.715 55.2143 360.005 56.6643 360.005 58.385C360.005 60.2023 359.696 61.9133 359.077 63.518C358.459 65.1033 357.55 66.4857 356.351 67.665C355.172 68.8443 353.712 69.7723 351.972 70.449C350.252 71.1257 348.289 71.464 346.085 71.464C343.379 71.464 340.923 70.9807 338.719 70.014C336.515 69.028 334.63 67.7037 333.064 66.041L334.688 63.373C334.843 63.1603 335.027 62.9863 335.239 62.851C335.471 62.6963 335.723 62.619 335.993 62.619C336.245 62.619 336.525 62.7253 336.834 62.938C337.163 63.1313 337.53 63.3827 337.936 63.692C338.342 64.0013 338.806 64.3397 339.328 64.707C339.85 65.0743 340.44 65.4127 341.097 65.722C341.774 66.0313 342.538 66.2923 343.388 66.505C344.239 66.6983 345.196 66.795 346.259 66.795C347.593 66.795 348.782 66.6113 349.826 66.244C350.87 65.8767 351.75 65.3643 352.465 64.707C353.2 64.0303 353.761 63.228 354.147 62.3C354.534 61.372 354.727 60.3377 354.727 59.197C354.727 57.9403 354.437 56.9157 353.857 56.123C353.297 55.311 352.552 54.6343 351.624 54.093C350.696 53.5517 349.633 53.0973 348.434 52.73C347.236 52.3433 346.018 51.9567 344.78 51.57C343.543 51.164 342.325 50.7 341.126 50.178C339.928 49.656 338.864 48.9793 337.936 48.148C337.008 47.3167 336.254 46.2823 335.674 45.045C335.114 43.7883 334.833 42.2417 334.833 40.405C334.833 38.9357 335.114 37.5147 335.674 36.142C336.254 34.7693 337.086 33.5513 338.168 32.488C339.27 31.4247 340.614 30.574 342.199 29.936C343.804 29.298 345.641 28.979 347.709 28.979C350.029 28.979 352.137 29.3463 354.031 30.081C355.945 30.8157 357.627 31.879 359.077 33.271L357.714 35.939ZM371.413 45.538C372.669 44.204 374.061 43.1407 375.589 42.348C377.116 41.5553 378.875 41.159 380.867 41.159C382.471 41.159 383.883 41.4297 385.101 41.971C386.338 42.493 387.363 43.247 388.175 44.233C389.006 45.1997 389.634 46.3693 390.06 47.742C390.485 49.1147 390.698 50.6323 390.698 52.295V71H385.507V52.295C385.507 50.0717 384.994 48.351 383.97 47.133C382.964 45.8957 381.427 45.277 379.359 45.277C377.831 45.277 376.401 45.6443 375.067 46.379C373.752 47.1137 372.534 48.1093 371.413 49.366V71H366.222V28.283H371.413V45.538ZM414.485 57.776C412.107 57.8533 410.077 58.0467 408.395 58.356C406.732 58.646 405.369 59.0327 404.306 59.516C403.262 59.9993 402.498 60.5697 402.015 61.227C401.551 61.8843 401.319 62.619 401.319 63.431C401.319 64.2043 401.444 64.8713 401.696 65.432C401.947 65.9927 402.285 66.4567 402.711 66.824C403.155 67.172 403.668 67.433 404.248 67.607C404.847 67.7617 405.485 67.839 406.162 67.839C407.07 67.839 407.902 67.752 408.656 67.578C409.41 67.3847 410.115 67.114 410.773 66.766C411.449 66.418 412.087 66.0023 412.687 65.519C413.305 65.0357 413.905 64.4847 414.485 63.866V57.776ZM397.81 45.77C399.434 44.204 401.183 43.0343 403.059 42.261C404.934 41.4877 407.012 41.101 409.294 41.101C410.937 41.101 412.397 41.3717 413.673 41.913C414.949 42.4543 416.022 43.2083 416.892 44.175C417.762 45.1417 418.419 46.3113 418.864 47.684C419.308 49.0567 419.531 50.5647 419.531 52.208V71H417.24C416.737 71 416.35 70.9227 416.08 70.768C415.809 70.594 415.596 70.2653 415.442 69.782L414.862 66.998C414.088 67.7133 413.334 68.3513 412.6 68.912C411.865 69.4533 411.092 69.9173 410.28 70.304C409.468 70.6713 408.598 70.9517 407.67 71.145C406.761 71.3577 405.746 71.464 404.625 71.464C403.484 71.464 402.411 71.3093 401.406 71C400.4 70.6713 399.521 70.188 398.767 69.55C398.032 68.912 397.442 68.1097 396.998 67.143C396.572 66.157 396.36 64.997 396.36 63.663C396.36 62.503 396.679 61.3913 397.317 60.328C397.955 59.2453 398.989 58.2883 400.42 57.457C401.85 56.6257 403.716 55.949 406.017 55.427C408.317 54.8857 411.14 54.5763 414.485 54.499V52.208C414.485 49.9267 413.992 48.206 413.006 47.046C412.02 45.8667 410.579 45.277 408.685 45.277C407.409 45.277 406.336 45.4413 405.466 45.77C404.615 46.0793 403.871 46.437 403.233 46.843C402.614 47.2297 402.073 47.5873 401.609 47.916C401.164 48.2253 400.719 48.38 400.275 48.38C399.927 48.38 399.627 48.293 399.376 48.119C399.124 47.9257 398.912 47.6937 398.738 47.423L397.81 45.77ZM432.295 47.51C433.223 45.4993 434.363 43.9333 435.717 42.812C437.07 41.6713 438.723 41.101 440.676 41.101C441.294 41.101 441.884 41.1687 442.445 41.304C443.025 41.4393 443.537 41.652 443.982 41.942L443.605 45.799C443.489 46.2823 443.199 46.524 442.735 46.524C442.464 46.524 442.068 46.466 441.546 46.35C441.024 46.234 440.434 46.176 439.777 46.176C438.849 46.176 438.017 46.3113 437.283 46.582C436.567 46.8527 435.92 47.2587 435.34 47.8C434.779 48.322 434.267 48.9793 433.803 49.772C433.358 50.5453 432.952 51.4347 432.585 52.44V71H427.394V41.623H430.352C430.912 41.623 431.299 41.7293 431.512 41.942C431.724 42.1547 431.869 42.522 431.947 43.044L432.295 47.51ZM466.993 53.107C466.993 51.9083 466.819 50.816 466.471 49.83C466.143 48.8247 465.65 47.9643 464.992 47.249C464.354 46.5143 463.571 45.9537 462.643 45.567C461.715 45.161 460.662 44.958 459.482 44.958C457.008 44.958 455.045 45.683 453.595 47.133C452.165 48.5637 451.275 50.555 450.927 53.107H466.993ZM471.169 66.882C470.531 67.6553 469.768 68.332 468.878 68.912C467.989 69.4727 467.032 69.9367 466.007 70.304C465.002 70.6713 463.958 70.942 462.875 71.116C461.793 71.3093 460.72 71.406 459.656 71.406C457.626 71.406 455.751 71.0677 454.03 70.391C452.329 69.695 450.85 68.6897 449.593 67.375C448.356 66.041 447.389 64.3977 446.693 62.445C445.997 60.4923 445.649 58.2497 445.649 55.717C445.649 53.6677 445.959 51.7537 446.577 49.975C447.215 48.1963 448.124 46.6593 449.303 45.364C450.483 44.0493 451.923 43.0247 453.624 42.29C455.326 41.536 457.24 41.159 459.366 41.159C461.126 41.159 462.75 41.4587 464.238 42.058C465.746 42.638 467.042 43.4887 468.124 44.61C469.226 45.712 470.087 47.0847 470.705 48.728C471.324 50.352 471.633 52.208 471.633 54.296C471.633 55.108 471.546 55.6493 471.372 55.92C471.198 56.1907 470.87 56.326 470.386 56.326H450.753C450.811 58.182 451.063 59.7963 451.507 61.169C451.971 62.5417 452.609 63.692 453.421 64.62C454.233 65.5287 455.2 66.215 456.321 66.679C457.443 67.1237 458.699 67.346 460.091 67.346C461.387 67.346 462.498 67.201 463.426 66.911C464.374 66.6017 465.186 66.273 465.862 65.925C466.539 65.577 467.1 65.258 467.544 64.968C468.008 64.6587 468.405 64.504 468.733 64.504C469.159 64.504 469.487 64.6683 469.719 64.997L471.169 66.882Z" fill="white"/>
<path d="M49.5 65.9927C40.393 65.9927 33.0073 58.5852 33.0073 49.5C33.0073 40.4148 40.4148 33.0073 49.5 33.0073C58.5852 33.0073 65.9927 40.4148 65.9927 49.5C65.9927 58.5852 58.607 65.9927 49.5 65.9927ZM49.5 29.0493C38.2143 29.0493 29.0493 38.2361 29.0493 49.5C29.0493 60.7639 38.2143 69.9507 49.5 69.9507C60.7857 69.9507 69.9507 60.7857 69.9507 49.5C69.9507 38.2143 60.7857 29.0493 49.5 29.0493ZM81.7738 47.5174C81.5995 44.5471 81.004 41.6785 80.0744 38.9842L92.4857 34.5323C93.9091 38.6283 94.7806 42.9857 94.9839 47.5392H81.7738V47.5174ZM80.2487 59.4784C81.0838 56.9221 81.5995 54.2496 81.7738 51.4826H94.9839C94.8024 55.8182 93.989 59.9941 92.6673 63.952L80.2487 59.4784ZM73.7126 70.9021C75.7533 68.5854 77.4745 65.9927 78.8035 63.1604L91.2584 67.634C89.2177 72.2892 86.4507 76.5449 83.0592 80.2487L73.7126 70.9021ZM63.6761 78.5638C66.3123 77.2784 68.7452 75.6371 70.9239 73.7126L80.2705 83.0592C76.9661 86.0876 73.2042 88.6439 69.1228 90.6048L63.6761 78.5638ZM51.4826 81.7738C54.4529 81.5995 57.2997 81.004 60.0158 80.0671L65.4626 92.1516C61.0834 93.7929 56.3702 94.7806 51.4826 94.9985V81.7738ZM39.4054 80.2124C41.9762 81.0621 44.7069 81.5995 47.5174 81.7738V94.9767C42.7678 94.7806 38.2143 93.851 33.9368 92.2896L39.4054 80.2124ZM28.0979 73.7126C30.371 75.7315 32.9492 77.4382 35.7161 78.7672L30.2912 90.7863C26.0572 88.8037 22.1574 86.1893 18.7513 83.0592L28.0979 73.7126ZM20.3127 63.4219C21.6199 66.1525 23.3048 68.6653 25.3019 70.9239L15.9626 80.2705C12.6292 76.6466 9.87676 72.4707 7.85783 67.8955L20.3127 63.4219ZM17.2262 51.4826C17.4005 54.3512 17.9597 57.1254 18.8312 59.7326L6.41263 64.1917C5.04732 60.1684 4.21941 55.9126 4.02333 51.4826H17.2262ZM19.0055 38.73C18.0178 41.5042 17.4005 44.4527 17.2262 47.5174H4.02333C4.21941 42.884 5.10541 38.4322 6.59419 34.2709L19.0055 38.73ZM25.2874 28.0979C23.421 30.1967 21.816 32.5497 20.5524 35.0843L8.0757 30.6107C10.0801 26.2533 12.7309 22.2518 15.9408 18.7731L25.2874 28.0979ZM35.4619 20.3708C32.7676 21.678 30.2912 23.3411 28.0761 25.3019L18.7513 15.9408C22.0993 12.8688 25.8974 10.298 30.037 8.33715L35.4619 20.3708ZM47.5174 17.2262C44.6125 17.4005 41.8019 17.9815 39.1439 18.8675L33.6972 6.79027C38.0328 5.1853 42.6879 4.21941 47.5392 4.00154V17.2262H47.5174ZM60.27 19.0055C57.4958 18.0178 54.5473 17.4005 51.4826 17.2262V4.01607C56.4718 4.23394 61.2577 5.26519 65.7168 6.97183L60.27 19.0055ZM70.9021 25.2874C68.8033 23.421 66.4503 21.816 63.9157 20.5524L69.3625 8.51144C73.3567 10.4577 77.0242 12.9705 80.2705 15.9408L70.9021 25.2874ZM73.7126 28.0979L83.0592 18.7513C86.3272 22.3171 89.0216 26.3913 91.0405 30.8504L78.5638 35.3239C77.2566 32.6877 75.6371 30.2548 73.7126 28.0979ZM49.5 77.8739C33.857 77.8739 21.1261 65.1431 21.1261 49.5C21.1261 33.857 33.857 21.1261 49.5 21.1261C65.1431 21.1261 77.8739 33.857 77.8739 49.5C77.8739 65.1431 65.1431 77.8739 49.5 77.8739ZM49.5 0C22.1937 0 0 22.1937 0 49.5C0 76.8063 22.1937 99 49.5 99C76.8063 99 99 76.8063 99 49.5C99 22.1937 76.8063 0 49.5 0Z" fill="white"/>
</svg>
