<svg width="214" height="41" viewBox="0 0 214 41" fill="none" xmlns="http://www.w3.org/2000/svg">
<path d="M68.524 22.088C68.524 23.6187 68.2953 25.0093 67.838 26.26C67.3807 27.5013 66.7367 28.5653 65.906 29.452C65.0753 30.3293 64.0767 31.0107 62.91 31.496C61.7527 31.972 60.474 32.21 59.074 32.21C57.674 32.21 56.3953 31.972 55.238 31.496C54.0807 31.0107 53.0867 30.3293 52.256 29.452C51.4253 28.5653 50.7813 27.5013 50.324 26.26C49.8667 25.0093 49.638 23.6187 49.638 22.088C49.638 20.5667 49.8667 19.1853 50.324 17.944C50.7813 16.6933 51.4253 15.6293 52.256 14.752C53.0867 13.8653 54.0807 13.1793 55.238 12.694C56.3953 12.2087 57.674 11.966 59.074 11.966C60.474 11.966 61.7527 12.2087 62.91 12.694C64.0767 13.17 65.0753 13.8513 65.906 14.738C66.7367 15.6247 67.3807 16.6933 67.838 17.944C68.2953 19.1853 68.524 20.5667 68.524 22.088ZM67.04 22.088C67.04 20.7067 66.8487 19.4653 66.466 18.364C66.0833 17.2627 65.542 16.3293 64.842 15.564C64.142 14.7987 63.302 14.2153 62.322 13.814C61.342 13.4033 60.2593 13.198 59.074 13.198C57.898 13.198 56.82 13.4033 55.84 13.814C54.86 14.2153 54.0153 14.7987 53.306 15.564C52.606 16.3293 52.06 17.2627 51.668 18.364C51.2853 19.4653 51.094 20.7067 51.094 22.088C51.094 23.4787 51.2853 24.7247 51.668 25.826C52.06 26.918 52.606 27.8467 53.306 28.612C54.0153 29.3773 54.86 29.9607 55.84 30.362C56.82 30.7633 57.898 30.964 59.074 30.964C60.2593 30.964 61.342 30.7633 62.322 30.362C63.302 29.9607 64.142 29.3773 64.842 28.612C65.542 27.8467 66.0833 26.918 66.466 25.826C66.8487 24.7247 67.04 23.4787 67.04 22.088ZM73.3903 21.43C73.605 20.8607 73.8476 20.3567 74.1183 19.918C74.3983 19.47 74.7156 19.092 75.0703 18.784C75.4343 18.476 75.8356 18.2427 76.2743 18.084C76.7223 17.916 77.217 17.832 77.7583 17.832C78.0476 17.832 78.3323 17.86 78.6123 17.916C78.8923 17.9627 79.1396 18.0513 79.3543 18.182L79.2423 19.106C79.1956 19.2553 79.107 19.33 78.9763 19.33C78.8643 19.33 78.6916 19.2973 78.4583 19.232C78.2343 19.1667 77.9356 19.134 77.5623 19.134C77.021 19.134 76.5403 19.218 76.1203 19.386C75.7096 19.5447 75.3363 19.7873 75.0003 20.114C74.6736 20.4407 74.3843 20.8467 74.1323 21.332C73.8896 21.808 73.6656 22.3587 73.4603 22.984V32H72.1163V18.07H72.8303C72.989 18.07 73.101 18.1027 73.1663 18.168C73.2316 18.2333 73.2736 18.3453 73.2923 18.504L73.3903 21.43ZM89.512 25.266C88.1866 25.3127 87.0433 25.42 86.082 25.588C85.13 25.7467 84.3413 25.966 83.716 26.246C83.1 26.526 82.6426 26.862 82.344 27.254C82.0453 27.6367 81.896 28.0753 81.896 28.57C81.896 29.0367 81.9706 29.4427 82.12 29.788C82.2786 30.124 82.484 30.404 82.736 30.628C82.9973 30.8427 83.296 31.0013 83.632 31.104C83.968 31.2067 84.318 31.258 84.682 31.258C85.2233 31.258 85.718 31.202 86.166 31.09C86.6233 30.9687 87.0433 30.8053 87.426 30.6C87.818 30.3853 88.182 30.1333 88.518 29.844C88.854 29.5547 89.1853 29.242 89.512 28.906V25.266ZM81.322 20.044C82.05 19.316 82.8153 18.7653 83.618 18.392C84.4206 18.0187 85.3306 17.832 86.348 17.832C87.0946 17.832 87.748 17.9533 88.308 18.196C88.868 18.4293 89.33 18.77 89.694 19.218C90.0673 19.6567 90.3473 20.1933 90.534 20.828C90.7206 21.4533 90.814 22.1533 90.814 22.928V32H90.282C90.002 32 89.8293 31.8693 89.764 31.608L89.568 29.816C89.1853 30.1893 88.8026 30.5253 88.42 30.824C88.0466 31.1227 87.6546 31.3747 87.244 31.58C86.8333 31.7853 86.39 31.944 85.914 32.056C85.438 32.168 84.9153 32.224 84.346 32.224C83.87 32.224 83.408 32.154 82.96 32.014C82.512 31.874 82.1106 31.6593 81.756 31.37C81.4106 31.0807 81.1306 30.712 80.916 30.264C80.7106 29.8067 80.608 29.2607 80.608 28.626C80.608 28.038 80.776 27.492 81.112 26.988C81.448 26.484 81.9753 26.0453 82.694 25.672C83.4126 25.2987 84.332 25 85.452 24.776C86.5813 24.552 87.9346 24.4213 89.512 24.384V22.928C89.512 21.64 89.232 20.6507 88.672 19.96C88.1213 19.26 87.3 18.91 86.208 18.91C85.536 18.91 84.962 19.0033 84.486 19.19C84.0193 19.3767 83.6226 19.582 83.296 19.806C82.9693 20.03 82.7033 20.2353 82.498 20.422C82.2926 20.6087 82.12 20.702 81.98 20.702C81.8773 20.702 81.7933 20.6787 81.728 20.632C81.6626 20.5853 81.6066 20.5247 81.56 20.45L81.322 20.044ZM96.5505 20.506C97.1945 19.7033 97.9365 19.0593 98.7765 18.574C99.6258 18.0887 100.568 17.846 101.604 17.846C102.37 17.846 103.042 17.9673 103.62 18.21C104.208 18.4527 104.694 18.8027 105.076 19.26C105.459 19.7173 105.748 20.268 105.944 20.912C106.14 21.556 106.238 22.284 106.238 23.096V32H104.894V23.096C104.894 21.7893 104.596 20.7673 103.998 20.03C103.401 19.2833 102.491 18.91 101.268 18.91C100.363 18.91 99.5138 19.1433 98.7205 19.61C97.9365 20.0673 97.2365 20.7067 96.6205 21.528V32H95.2765V18.07H96.0185C96.2518 18.07 96.3871 18.1867 96.4245 18.42L96.5505 20.506ZM115.221 25.84C115.818 25.84 116.35 25.756 116.817 25.588C117.284 25.4107 117.676 25.168 117.993 24.86C118.31 24.552 118.553 24.1833 118.721 23.754C118.889 23.3247 118.973 22.8487 118.973 22.326C118.973 21.8033 118.884 21.3273 118.707 20.898C118.539 20.4593 118.292 20.086 117.965 19.778C117.648 19.47 117.256 19.232 116.789 19.064C116.332 18.896 115.809 18.812 115.221 18.812C114.633 18.812 114.106 18.896 113.639 19.064C113.182 19.232 112.79 19.47 112.463 19.778C112.146 20.086 111.903 20.4593 111.735 20.898C111.567 21.3273 111.483 21.8033 111.483 22.326C111.483 22.8487 111.567 23.3247 111.735 23.754C111.903 24.1833 112.146 24.552 112.463 24.86C112.79 25.168 113.182 25.4107 113.639 25.588C114.106 25.756 114.633 25.84 115.221 25.84ZM120.429 32.938C120.429 32.4993 120.312 32.1493 120.079 31.888C119.855 31.6173 119.552 31.4073 119.169 31.258C118.786 31.1087 118.343 31.006 117.839 30.95C117.344 30.8847 116.822 30.838 116.271 30.81C115.73 30.782 115.184 30.754 114.633 30.726C114.082 30.698 113.564 30.642 113.079 30.558C112.724 30.698 112.398 30.8613 112.099 31.048C111.8 31.2253 111.544 31.4307 111.329 31.664C111.114 31.8973 110.946 32.1493 110.825 32.42C110.704 32.7 110.643 32.9987 110.643 33.316C110.643 33.7267 110.746 34.1047 110.951 34.45C111.166 34.8047 111.474 35.108 111.875 35.36C112.286 35.6213 112.785 35.8267 113.373 35.976C113.961 36.1253 114.638 36.2 115.403 36.2C116.112 36.2 116.77 36.1207 117.377 35.962C117.993 35.8033 118.525 35.5793 118.973 35.29C119.43 35.0007 119.785 34.6553 120.037 34.254C120.298 33.8527 120.429 33.414 120.429 32.938ZM121.885 18.686V19.148C121.885 19.3533 121.754 19.4793 121.493 19.526L119.365 19.68C119.626 20.0347 119.827 20.4313 119.967 20.87C120.107 21.3087 120.177 21.7847 120.177 22.298C120.177 22.97 120.056 23.5813 119.813 24.132C119.58 24.6733 119.244 25.14 118.805 25.532C118.376 25.9147 117.853 26.2133 117.237 26.428C116.63 26.6427 115.958 26.75 115.221 26.75C114.428 26.75 113.704 26.6287 113.051 26.386C112.659 26.61 112.346 26.876 112.113 27.184C111.889 27.4827 111.777 27.7813 111.777 28.08C111.777 28.4813 111.917 28.7893 112.197 29.004C112.486 29.2187 112.86 29.3773 113.317 29.48C113.784 29.5733 114.311 29.634 114.899 29.662C115.496 29.69 116.103 29.7227 116.719 29.76C117.335 29.788 117.937 29.844 118.525 29.928C119.122 30.012 119.65 30.1613 120.107 30.376C120.574 30.5813 120.947 30.8753 121.227 31.258C121.516 31.6313 121.661 32.1307 121.661 32.756C121.661 33.3347 121.516 33.89 121.227 34.422C120.938 34.954 120.518 35.4253 119.967 35.836C119.426 36.2467 118.768 36.5733 117.993 36.816C117.218 37.068 116.35 37.194 115.389 37.194C114.409 37.194 113.55 37.0913 112.813 36.886C112.076 36.69 111.455 36.4193 110.951 36.074C110.456 35.738 110.083 35.346 109.831 34.898C109.579 34.45 109.453 33.974 109.453 33.47C109.453 32.7327 109.696 32.1027 110.181 31.58C110.666 31.048 111.329 30.6327 112.169 30.334C111.702 30.1753 111.324 29.9467 111.035 29.648C110.755 29.34 110.615 28.9247 110.615 28.402C110.615 28.206 110.652 28.0007 110.727 27.786C110.802 27.5713 110.914 27.3613 111.063 27.156C111.212 26.9413 111.394 26.7407 111.609 26.554C111.824 26.3673 112.066 26.1993 112.337 26.05C111.674 25.6673 111.156 25.1587 110.783 24.524C110.419 23.8893 110.237 23.1473 110.237 22.298C110.237 21.626 110.354 21.0193 110.587 20.478C110.83 19.9273 111.17 19.456 111.609 19.064C112.048 18.672 112.57 18.3687 113.177 18.154C113.793 17.9393 114.474 17.832 115.221 17.832C115.837 17.832 116.402 17.9067 116.915 18.056C117.438 18.2053 117.904 18.4153 118.315 18.686H121.885ZM134.552 23.628C134.552 22.8813 134.445 22.214 134.23 21.626C134.025 21.0287 133.731 20.5247 133.348 20.114C132.966 19.7033 132.508 19.3907 131.976 19.176C131.454 18.952 130.875 18.84 130.24 18.84C129.522 18.84 128.878 18.952 128.308 19.176C127.739 19.4 127.244 19.722 126.824 20.142C126.414 20.562 126.082 21.066 125.83 21.654C125.578 22.242 125.41 22.9 125.326 23.628H134.552ZM125.256 24.482V24.748C125.256 25.7933 125.378 26.7127 125.62 27.506C125.863 28.2993 126.208 28.9667 126.656 29.508C127.104 30.04 127.646 30.4413 128.28 30.712C128.915 30.9827 129.624 31.118 130.408 31.118C131.108 31.118 131.715 31.0433 132.228 30.894C132.742 30.7353 133.171 30.5627 133.516 30.376C133.871 30.18 134.151 30.0073 134.356 29.858C134.562 29.6993 134.711 29.62 134.804 29.62C134.926 29.62 135.019 29.6667 135.084 29.76L135.448 30.208C135.224 30.488 134.926 30.7493 134.552 30.992C134.188 31.2347 133.778 31.4447 133.32 31.622C132.872 31.79 132.387 31.9253 131.864 32.028C131.351 32.1307 130.833 32.182 130.31 32.182C129.358 32.182 128.49 32.0187 127.706 31.692C126.922 31.356 126.25 30.8707 125.69 30.236C125.13 29.6013 124.696 28.8267 124.388 27.912C124.09 26.988 123.94 25.9333 123.94 24.748C123.94 23.7493 124.08 22.83 124.36 21.99C124.65 21.1407 125.06 20.4127 125.592 19.806C126.134 19.19 126.792 18.7093 127.566 18.364C128.35 18.0187 129.237 17.846 130.226 17.846C131.01 17.846 131.738 17.9813 132.41 18.252C133.082 18.5227 133.666 18.9193 134.16 19.442C134.655 19.9553 135.042 20.59 135.322 21.346C135.612 22.102 135.756 22.97 135.756 23.95C135.756 24.1553 135.728 24.2953 135.672 24.37C135.616 24.4447 135.523 24.482 135.392 24.482H125.256Z" fill="black"/>
<path d="M157.048 15.172C156.955 15.3307 156.857 15.4473 156.754 15.522C156.651 15.5967 156.521 15.634 156.362 15.634C156.194 15.634 156.003 15.5593 155.788 15.41C155.573 15.2513 155.303 15.0787 154.976 14.892C154.659 14.696 154.276 14.5233 153.828 14.374C153.38 14.2153 152.843 14.136 152.218 14.136C151.63 14.136 151.112 14.2153 150.664 14.374C150.225 14.5233 149.857 14.7333 149.558 15.004C149.259 15.2653 149.031 15.578 148.872 15.942C148.723 16.2967 148.648 16.684 148.648 17.104C148.648 17.6453 148.783 18.0933 149.054 18.448C149.334 18.8027 149.698 19.106 150.146 19.358C150.594 19.61 151.103 19.8293 151.672 20.016C152.241 20.2027 152.825 20.3987 153.422 20.604C154.019 20.8 154.603 21.0287 155.172 21.29C155.741 21.5513 156.25 21.8827 156.698 22.284C157.146 22.676 157.505 23.1613 157.776 23.74C158.056 24.3093 158.196 25.0093 158.196 25.84C158.196 26.7267 158.042 27.5573 157.734 28.332C157.435 29.1067 156.997 29.7833 156.418 30.362C155.839 30.9407 155.125 31.398 154.276 31.734C153.436 32.0607 152.479 32.224 151.406 32.224C150.762 32.224 150.137 32.1587 149.53 32.028C148.923 31.9067 148.349 31.734 147.808 31.51C147.267 31.2767 146.758 31.0013 146.282 30.684C145.815 30.3573 145.395 29.9933 145.022 29.592L145.876 28.164C145.96 28.052 146.058 27.9587 146.17 27.884C146.291 27.8093 146.427 27.772 146.576 27.772C146.772 27.772 146.996 27.8747 147.248 28.08C147.509 28.2853 147.827 28.514 148.2 28.766C148.583 29.0087 149.035 29.2327 149.558 29.438C150.09 29.6433 150.734 29.746 151.49 29.746C152.106 29.746 152.657 29.6667 153.142 29.508C153.627 29.34 154.033 29.1067 154.36 28.808C154.696 28.5 154.953 28.1313 155.13 27.702C155.307 27.2727 155.396 26.7967 155.396 26.274C155.396 25.686 155.261 25.2053 154.99 24.832C154.719 24.4587 154.36 24.146 153.912 23.894C153.464 23.642 152.955 23.4273 152.386 23.25C151.817 23.0727 151.233 22.8907 150.636 22.704C150.039 22.508 149.455 22.284 148.886 22.032C148.317 21.78 147.808 21.4533 147.36 21.052C146.912 20.6413 146.553 20.1327 146.282 19.526C146.011 18.91 145.876 18.154 145.876 17.258C145.876 16.5393 146.016 15.844 146.296 15.172C146.576 14.5 146.982 13.9073 147.514 13.394C148.055 12.8713 148.718 12.456 149.502 12.148C150.286 11.8307 151.182 11.672 152.19 11.672C153.319 11.672 154.355 11.854 155.298 12.218C156.25 12.5727 157.076 13.086 157.776 13.758L157.048 15.172ZM163.8 19.582C164.398 18.9753 165.056 18.4853 165.774 18.112C166.502 17.7387 167.338 17.552 168.28 17.552C169.064 17.552 169.75 17.6827 170.338 17.944C170.936 18.2053 171.435 18.574 171.836 19.05C172.238 19.5167 172.541 20.0813 172.746 20.744C172.952 21.4067 173.054 22.1393 173.054 22.942V32H170.31V22.942C170.31 21.9247 170.077 21.136 169.61 20.576C169.144 20.0067 168.43 19.722 167.468 19.722C166.768 19.722 166.11 19.89 165.494 20.226C164.888 20.5527 164.323 21.0007 163.8 21.57V32H161.07V11.336H163.8V19.582ZM184.382 25.686C183.272 25.7233 182.329 25.812 181.554 25.952C180.78 26.0827 180.15 26.26 179.664 26.484C179.179 26.708 178.829 26.974 178.614 27.282C178.4 27.5807 178.292 27.9167 178.292 28.29C178.292 28.6447 178.348 28.9527 178.46 29.214C178.582 29.466 178.74 29.676 178.936 29.844C179.142 30.0027 179.38 30.1193 179.65 30.194C179.921 30.2687 180.215 30.306 180.532 30.306C180.952 30.306 181.335 30.264 181.68 30.18C182.035 30.096 182.366 29.9793 182.674 29.83C182.982 29.6713 183.276 29.48 183.556 29.256C183.836 29.032 184.112 28.7753 184.382 28.486V25.686ZM176.374 19.764C177.168 19.008 178.026 18.4433 178.95 18.07C179.884 17.6967 180.906 17.51 182.016 17.51C182.828 17.51 183.547 17.6453 184.172 17.916C184.798 18.1773 185.325 18.546 185.754 19.022C186.184 19.498 186.506 20.0673 186.72 20.73C186.944 21.3927 187.056 22.1253 187.056 22.928V32H185.838C185.568 32 185.362 31.958 185.222 31.874C185.082 31.7807 184.97 31.6127 184.886 31.37L184.592 30.124C184.228 30.46 183.869 30.7587 183.514 31.02C183.16 31.272 182.786 31.4913 182.394 31.678C182.012 31.8553 181.601 31.9907 181.162 32.084C180.724 32.1773 180.238 32.224 179.706 32.224C179.146 32.224 178.619 32.1493 178.124 32C177.639 31.8413 177.214 31.6033 176.85 31.286C176.486 30.9687 176.197 30.572 175.982 30.096C175.777 29.62 175.674 29.0647 175.674 28.43C175.674 27.87 175.824 27.3333 176.122 26.82C176.43 26.2973 176.925 25.8307 177.606 25.42C178.297 25.0093 179.193 24.6733 180.294 24.412C181.405 24.1507 182.768 24.0013 184.382 23.964V22.928C184.382 21.8547 184.154 21.052 183.696 20.52C183.239 19.988 182.567 19.722 181.68 19.722C181.083 19.722 180.579 19.7967 180.168 19.946C179.767 20.0953 179.417 20.2633 179.118 20.45C178.829 20.6273 178.572 20.7907 178.348 20.94C178.134 21.0893 177.91 21.164 177.676 21.164C177.49 21.164 177.326 21.1127 177.186 21.01C177.056 20.9073 176.948 20.786 176.864 20.646L176.374 19.764ZM193.287 20.506C193.744 19.5727 194.295 18.84 194.939 18.308C195.583 17.776 196.358 17.51 197.263 17.51C197.571 17.51 197.86 17.5473 198.131 17.622C198.411 17.6873 198.654 17.79 198.859 17.93L198.677 19.988C198.612 20.24 198.458 20.366 198.215 20.366C198.084 20.366 197.888 20.3427 197.627 20.296C197.366 20.24 197.086 20.212 196.787 20.212C196.348 20.212 195.961 20.2773 195.625 20.408C195.289 20.5293 194.986 20.716 194.715 20.968C194.454 21.2107 194.22 21.514 194.015 21.878C193.81 22.2327 193.618 22.6387 193.441 23.096V32H190.711V17.776H192.279C192.578 17.776 192.778 17.832 192.881 17.944C192.993 18.0467 193.072 18.2333 193.119 18.504L193.287 20.506ZM209.867 23.306C209.867 22.7647 209.788 22.2653 209.629 21.808C209.48 21.3507 209.256 20.954 208.957 20.618C208.659 20.282 208.295 20.0207 207.865 19.834C207.436 19.6473 206.941 19.554 206.381 19.554C205.233 19.554 204.328 19.8853 203.665 20.548C203.012 21.2107 202.597 22.13 202.419 23.306H209.867ZM212.121 29.97C211.785 30.362 211.398 30.7027 210.959 30.992C210.521 31.272 210.054 31.5007 209.559 31.678C209.065 31.8553 208.551 31.986 208.019 32.07C207.497 32.154 206.979 32.196 206.465 32.196C205.485 32.196 204.575 32.0327 203.735 31.706C202.905 31.37 202.181 30.8847 201.565 30.25C200.959 29.606 200.483 28.8127 200.137 27.87C199.801 26.918 199.633 25.826 199.633 24.594C199.633 23.6047 199.787 22.6853 200.095 21.836C200.403 20.9773 200.842 20.2307 201.411 19.596C201.99 18.9613 202.695 18.462 203.525 18.098C204.356 17.734 205.289 17.552 206.325 17.552C207.193 17.552 207.991 17.6967 208.719 17.986C209.457 18.266 210.091 18.6767 210.623 19.218C211.155 19.7593 211.571 20.4267 211.869 21.22C212.177 22.0133 212.331 22.9187 212.331 23.936C212.331 24.356 212.285 24.6407 212.191 24.79C212.098 24.93 211.925 25 211.673 25H202.349C202.377 25.8493 202.499 26.5913 202.713 27.226C202.928 27.8513 203.222 28.374 203.595 28.794C203.978 29.214 204.431 29.5267 204.953 29.732C205.476 29.9373 206.059 30.04 206.703 30.04C207.31 30.04 207.833 29.97 208.271 29.83C208.719 29.69 209.102 29.5407 209.419 29.382C209.746 29.214 210.017 29.06 210.231 28.92C210.455 28.78 210.651 28.71 210.819 28.71C211.043 28.71 211.216 28.794 211.337 28.962L212.121 29.97Z" fill="#FE4400"/>
<path d="M20.5 27.3303C16.7284 27.3303 13.6697 24.2625 13.6697 20.5C13.6697 16.7375 16.7375 13.6697 20.5 13.6697C24.2625 13.6697 27.3303 16.7375 27.3303 20.5C27.3303 24.2625 24.2716 27.3303 20.5 27.3303ZM20.5 12.0305C15.8261 12.0305 12.0305 15.8352 12.0305 20.5C12.0305 25.1648 15.8261 28.9695 20.5 28.9695C25.1739 28.9695 28.9695 25.1739 28.9695 20.5C28.9695 15.8261 25.1739 12.0305 20.5 12.0305ZM33.8659 19.6789C33.7937 18.4488 33.5471 17.2608 33.1621 16.145L38.3022 14.3013C38.8917 15.9976 39.2526 17.8022 39.3368 19.6879H33.8659V19.6789ZM33.2343 24.6325C33.5802 23.5738 33.7937 22.467 33.8659 21.3211H39.3368C39.2616 23.1166 38.9247 24.846 38.3773 26.4852L33.2343 24.6325ZM30.5274 29.3635C31.3726 28.404 32.0854 27.3303 32.6358 26.1574L37.7939 28.01C36.9487 29.9379 35.8028 31.7004 34.3983 33.2343L30.5274 29.3635ZM26.3709 32.5365C27.4627 32.0042 28.4702 31.3245 29.3725 30.5274L33.2433 34.3983C31.8749 35.6524 30.3169 36.7111 28.6266 37.5232L26.3709 32.5365ZM21.3211 33.8659C22.5512 33.7937 23.7302 33.5471 24.855 33.1591L27.1108 38.1638C25.2972 38.8435 23.3452 39.2526 21.3211 39.3428V33.8659ZM16.3194 33.2193C17.3841 33.5712 18.515 33.7937 19.6789 33.8659V39.3338C17.7119 39.2526 15.8261 38.8676 14.0547 38.221L16.3194 33.2193ZM11.6365 30.5274C12.5779 31.3636 13.6456 32.0704 14.7915 32.6207L12.5448 37.5984C10.7914 36.7773 9.17628 35.6945 7.7657 34.3983L11.6365 30.5274ZM8.41234 26.2656C8.95371 27.3965 9.65148 28.4371 10.4786 29.3725L6.61077 33.2433C5.23027 31.7425 4.09038 30.0131 3.25425 28.1183L8.41234 26.2656ZM7.1341 21.3211C7.20628 22.5091 7.43787 23.658 7.79878 24.7378L2.65574 26.5844C2.0903 24.9182 1.74743 23.1557 1.66623 21.3211H7.1341ZM7.87097 16.0397C7.46193 17.1886 7.20628 18.4097 7.1341 19.6789H1.66623C1.74743 17.76 2.11436 15.9164 2.73093 14.193L7.87097 16.0397ZM10.4726 11.6365C9.6996 12.5057 9.03492 13.4802 8.51159 14.5299L3.34448 12.6772C4.17459 10.8726 5.27237 9.21538 6.60175 7.77472L10.4726 11.6365ZM14.6863 8.4364C13.5704 8.97777 12.5448 9.66652 11.6275 10.4786L7.7657 6.60175C9.15222 5.32952 10.7252 4.26482 12.4396 3.45276L14.6863 8.4364ZM19.6789 7.1341C18.4759 7.20628 17.3119 7.44689 16.2111 7.81382L13.9554 2.81213C15.751 2.14745 17.6788 1.74743 19.6879 1.6572V7.1341H19.6789ZM24.9603 7.87097C23.8114 7.46193 22.5903 7.20628 21.3211 7.1341V1.66322C23.3873 1.75345 25.3694 2.18053 27.216 2.88732L24.9603 7.87097ZM29.3635 10.4726C28.4943 9.6996 27.5198 9.03492 26.4701 8.51159L28.7259 3.52494C30.3801 4.33099 31.8989 5.37163 33.2433 6.60175L29.3635 10.4726ZM30.5274 11.6365L34.3983 7.7657C35.7517 9.24244 36.8675 10.9297 37.7036 12.7764L32.5365 14.6291C31.9952 13.5373 31.3245 12.5298 30.5274 11.6365ZM20.5 32.2508C14.0216 32.2508 8.74919 26.9784 8.74919 20.5C8.74919 14.0216 14.0216 8.74919 20.5 8.74919C26.9784 8.74919 32.2508 14.0216 32.2508 20.5C32.2508 26.9784 26.9784 32.2508 20.5 32.2508ZM20.5 0C9.19131 0 0 9.19131 0 20.5C0 31.8087 9.19131 41 20.5 41C31.8087 41 41 31.8087 41 20.5C41 9.19131 31.8087 0 20.5 0Z" fill="#F43300"/>
</svg>
