<svg width="41" height="41" viewBox="0 0 41 41" fill="#FFFFFF" xmlns="http://www.w3.org/2000/svg">
<path d="M20.5 27.3303C16.7284 27.3303 13.6697 24.2625 13.6697 20.5C13.6697 16.7375 16.7375 13.6697 20.5 13.6697C24.2625 13.6697 27.3303 16.7375 27.3303 20.5C27.3303 24.2625 24.2716 27.3303 20.5 27.3303ZM20.5 12.0305C15.8261 12.0305 12.0305 15.8352 12.0305 20.5C12.0305 25.1648 15.8261 28.9695 20.5 28.9695C25.1739 28.9695 28.9695 25.1739 28.9695 20.5C28.9695 15.8261 25.1739 12.0305 20.5 12.0305ZM33.8659 19.6789C33.7937 18.4488 33.5471 17.2608 33.1621 16.145L38.3022 14.3013C38.8917 15.9976 39.2526 17.8022 39.3368 19.6879H33.8659V19.6789ZM33.2343 24.6325C33.5802 23.5738 33.7937 22.467 33.8659 21.3211H39.3368C39.2616 23.1166 38.9247 24.846 38.3773 26.4852L33.2343 24.6325ZM30.5274 29.3635C31.3726 28.404 32.0854 27.3303 32.6358 26.1574L37.7939 28.01C36.9487 29.9379 35.8028 31.7004 34.3983 33.2343L30.5274 29.3635ZM26.3709 32.5365C27.4627 32.0042 28.4702 31.3245 29.3725 30.5274L33.2433 34.3983C31.8749 35.6524 30.3169 36.7111 28.6266 37.5232L26.3709 32.5365ZM21.3211 33.8659C22.5512 33.7937 23.7302 33.5471 24.855 33.1591L27.1108 38.1638C25.2972 38.8435 23.3452 39.2526 21.3211 39.3428V33.8659ZM16.3194 33.2193C17.3841 33.5712 18.515 33.7937 19.6789 33.8659V39.3338C17.7119 39.2526 15.8261 38.8676 14.0547 38.221L16.3194 33.2193ZM11.6365 30.5274C12.5779 31.3636 13.6456 32.0704 14.7915 32.6207L12.5448 37.5984C10.7914 36.7773 9.17628 35.6945 7.7657 34.3983L11.6365 30.5274ZM8.41234 26.2656C8.95371 27.3965 9.65148 28.4371 10.4786 29.3725L6.61077 33.2433C5.23027 31.7425 4.09038 30.0131 3.25425 28.1183L8.41234 26.2656ZM7.1341 21.3211C7.20628 22.5091 7.43787 23.658 7.79878 24.7378L2.65574 26.5844C2.0903 24.9182 1.74743 23.1557 1.66623 21.3211H7.1341ZM7.87097 16.0397C7.46193 17.1886 7.20628 18.4097 7.1341 19.6789H1.66623C1.74743 17.76 2.11436 15.9164 2.73093 14.193L7.87097 16.0397ZM10.4726 11.6365C9.6996 12.5057 9.03492 13.4802 8.51159 14.5299L3.34448 12.6772C4.17459 10.8726 5.27237 9.21538 6.60175 7.77472L10.4726 11.6365ZM14.6863 8.4364C13.5704 8.97777 12.5448 9.66652 11.6275 10.4786L7.7657 6.60175C9.15222 5.32952 10.7252 4.26482 12.4396 3.45276L14.6863 8.4364ZM19.6789 7.1341C18.4759 7.20628 17.3119 7.44689 16.2111 7.81382L13.9554 2.81213C15.751 2.14745 17.6788 1.74743 19.6879 1.6572V7.1341H19.6789ZM24.9603 7.87097C23.8114 7.46193 22.5903 7.20628 21.3211 7.1341V1.66322C23.3873 1.75345 25.3694 2.18053 27.216 2.88732L24.9603 7.87097ZM29.3635 10.4726C28.4943 9.6996 27.5198 9.03492 26.4701 8.51159L28.7259 3.52494C30.3801 4.33099 31.8989 5.37163 33.2433 6.60175L29.3635 10.4726ZM30.5274 11.6365L34.3983 7.7657C35.7517 9.24244 36.8675 10.9297 37.7036 12.7764L32.5365 14.6291C31.9952 13.5373 31.3245 12.5298 30.5274 11.6365ZM20.5 32.2508C14.0216 32.2508 8.74919 26.9784 8.74919 20.5C8.74919 14.0216 14.0216 8.74919 20.5 8.74919C26.9784 8.74919 32.2508 14.0216 32.2508 20.5C32.2508 26.9784 26.9784 32.2508 20.5 32.2508ZM20.5 0C9.19131 0 0 9.19131 0 20.5C0 31.8087 9.19131 41 20.5 41C31.8087 41 41 31.8087 41 20.5C41 9.19131 31.8087 0 20.5 0Z" fill="#F43300"/>
</svg>
