<svg width="704" height="1024" viewBox="0 0 704 1024" fill="none" xmlns="http://www.w3.org/2000/svg">
<rect x="-16" width="720" height="1024" fill="#FE5517"/>
<circle cx="17.5" cy="520.5" r="248.5" fill="#FE4400"/>
<circle cx="569" cy="1" r="135" fill="#FE662E"/>
<path d="M400.462 615.368C379.326 615.368 379.326 590.047 358.187 590.047C337.048 590.047 337.038 615.368 315.893 615.368C294.748 615.368 294.754 590.047 273.615 590.047C252.46 590.047 252.46 615.368 231.308 615.368C210.156 615.368 210.153 590.047 189.001 590.047" stroke="#FF7B42" stroke-width="3.863" stroke-linecap="round" stroke-linejoin="round"/>
<path d="M400.462 580.343C379.326 580.343 379.326 555.025 358.187 555.025C337.048 555.025 337.038 580.343 315.893 580.343C294.748 580.343 294.754 555.025 273.615 555.025C252.46 555.025 252.46 580.343 231.308 580.343C210.156 580.343 210.152 555.025 189 555.025" stroke="#FF7B42" stroke-width="3.863" stroke-linecap="round" stroke-linejoin="round"/>
<path d="M400.462 545.321C379.326 545.321 379.326 520 358.187 520C337.048 520 337.038 545.321 315.893 545.321C294.748 545.321 294.754 520 273.615 520C252.46 520 252.46 545.321 231.308 545.321C210.156 545.321 210.153 520 189.001 520" stroke="#FF7B42" stroke-width="3.863" stroke-linecap="round" stroke-linejoin="round"/>
<path d="M156.876 726.248C160.81 726.248 164 723.058 164 719.124C164 715.189 160.81 712 156.876 712C152.942 712 149.752 715.189 149.752 719.124C149.752 723.058 152.942 726.248 156.876 726.248Z" fill="#FF7B42"/>
<path d="M130.124 753C134.058 753 137.247 749.811 137.247 745.876C137.247 741.942 134.058 738.752 130.124 738.752C126.189 738.752 123 741.942 123 745.876C123 749.811 126.189 753 130.124 753Z" fill="#FF7B42"/>
<path d="M156.023 752.033C159.957 752.033 163.146 748.844 163.146 744.91C163.146 740.975 159.957 737.786 156.023 737.786C152.088 737.786 148.899 740.975 148.899 744.91C148.899 748.844 152.088 752.033 156.023 752.033Z" fill="#FF7B42"/>
<path d="M131.575 727.585C135.509 727.585 138.699 724.396 138.699 720.461C138.699 716.527 135.509 713.337 131.575 713.337C127.641 713.337 124.451 716.527 124.451 720.461C124.451 724.396 127.641 727.585 131.575 727.585Z" fill="#FF7B42"/>
<path d="M75.6462 764.645C76.6999 763.592 78.1288 763 79.6186 763C81.1085 763 82.5374 763.592 83.5911 764.645L113.355 794.41C114.408 795.463 115 796.892 115 798.382C115 799.872 114.408 801.301 113.355 802.355V802.355C112.834 802.876 112.215 803.29 111.533 803.572C110.852 803.855 110.122 804 109.384 804C108.647 804 107.916 803.855 107.235 803.572C106.554 803.29 105.934 802.876 105.413 802.355L75.6462 772.587C75.1246 772.066 74.7108 771.447 74.4286 770.765C74.1463 770.084 74.001 769.354 74.001 768.616C74.001 767.879 74.1463 767.148 74.4286 766.467C74.7108 765.786 75.1246 765.167 75.6462 764.645V764.645Z" fill="#FF7B42"/>
<path d="M113.354 764.645C113.876 765.167 114.289 765.786 114.572 766.467C114.854 767.148 114.999 767.879 114.999 768.616C114.999 769.354 114.854 770.084 114.572 770.766C114.289 771.447 113.876 772.066 113.354 772.587L83.59 802.355C82.5363 803.408 81.1074 804 79.6175 804C78.1276 804 76.6988 803.408 75.6451 802.355V802.355C74.5917 801.301 74 799.872 74 798.382C74 796.892 74.5917 795.463 75.6451 794.41L105.412 764.645C105.933 764.124 106.552 763.71 107.234 763.428C107.915 763.145 108.645 763 109.383 763C110.12 763 110.851 763.145 111.532 763.428C112.213 763.71 112.833 764.124 113.354 764.645V764.645Z" fill="#FF7B42"/>
<path d="M276.29 416C278.339 416 280 414.337 280 412.285C280 410.233 278.339 408.57 276.29 408.57C274.242 408.57 272.581 410.233 272.581 412.285C272.581 414.337 274.242 416 276.29 416Z" fill="#FF7B42"/>
<path d="M240.395 416C242.444 416 244.105 414.337 244.105 412.285C244.105 410.233 242.444 408.57 240.395 408.57C238.346 408.57 236.686 410.233 236.686 412.285C236.686 414.337 238.346 416 240.395 416Z" fill="#FF7B42"/>
<path d="M204.501 416C206.55 416 208.211 414.337 208.211 412.285C208.211 410.233 206.55 408.57 204.501 408.57C202.452 408.57 200.791 410.233 200.791 412.285C200.791 414.337 202.452 416 204.501 416Z" fill="#FF7B42"/>
<path d="M164.896 412.28C164.896 411.545 165.113 410.827 165.521 410.216C165.928 409.606 166.508 409.13 167.185 408.849C167.863 408.568 168.609 408.494 169.328 408.637C170.047 408.781 170.708 409.134 171.227 409.654C171.746 410.173 172.099 410.835 172.242 411.555C172.385 412.276 172.311 413.022 172.031 413.701C171.75 414.379 171.275 414.959 170.665 415.368C170.055 415.776 169.338 415.993 168.605 415.993C168.117 415.994 167.635 415.898 167.185 415.711C166.735 415.525 166.326 415.251 165.981 414.906C165.637 414.561 165.364 414.152 165.178 413.701C164.991 413.251 164.896 412.767 164.896 412.28V412.28Z" fill="#FF7B42"/>
<path d="M132.71 416C134.759 416 136.42 414.337 136.42 412.285C136.42 410.233 134.759 408.57 132.71 408.57C130.661 408.57 129 410.233 129 412.285C129 414.337 130.661 416 132.71 416Z" fill="#FF7B42"/>
<path d="M276.29 388.686C278.339 388.686 280 387.023 280 384.971C280 382.92 278.339 381.256 276.29 381.256C274.242 381.256 272.581 382.92 272.581 384.971C272.581 387.023 274.242 388.686 276.29 388.686Z" fill="#FF7B42"/>
<path d="M240.395 388.686C242.444 388.686 244.105 387.023 244.105 384.971C244.105 382.92 242.444 381.256 240.395 381.256C238.346 381.256 236.686 382.92 236.686 384.971C236.686 387.023 238.346 388.686 240.395 388.686Z" fill="#FF7B42"/>
<path d="M204.501 388.686C206.55 388.686 208.211 387.023 208.211 384.971C208.211 382.92 206.55 381.256 204.501 381.256C202.452 381.256 200.791 382.92 200.791 384.971C200.791 387.023 202.452 388.686 204.501 388.686Z" fill="#FF7B42"/>
<path d="M164.896 384.97C164.897 384.236 165.115 383.518 165.523 382.908C165.931 382.298 166.51 381.822 167.188 381.542C167.866 381.261 168.611 381.188 169.33 381.332C170.05 381.476 170.71 381.83 171.228 382.349C171.747 382.869 172.099 383.531 172.242 384.251C172.385 384.971 172.311 385.718 172.03 386.396C171.75 387.074 171.274 387.654 170.665 388.062C170.055 388.47 169.338 388.688 168.605 388.688C168.117 388.688 167.635 388.592 167.184 388.405C166.734 388.218 166.325 387.944 165.981 387.599C165.636 387.253 165.363 386.843 165.177 386.392C164.991 385.941 164.895 385.458 164.896 384.97V384.97Z" fill="#FF7B42"/>
<path d="M132.71 388.686C134.759 388.686 136.42 387.023 136.42 384.971C136.42 382.92 134.759 381.256 132.71 381.256C130.661 381.256 129 382.92 129 384.971C129 387.023 130.661 388.686 132.71 388.686Z" fill="#FF7B42"/>
<path d="M276.29 361.372C278.339 361.372 280 359.709 280 357.657C280 355.605 278.339 353.942 276.29 353.942C274.242 353.942 272.581 355.605 272.581 357.657C272.581 359.709 274.242 361.372 276.29 361.372Z" fill="#FF7B42"/>
<path d="M240.395 361.372C242.444 361.372 244.105 359.709 244.105 357.657C244.105 355.605 242.444 353.942 240.395 353.942C238.346 353.942 236.686 355.605 236.686 357.657C236.686 359.709 238.346 361.372 240.395 361.372Z" fill="#FF7B42"/>
<path d="M204.501 361.372C206.55 361.372 208.211 359.709 208.211 357.657C208.211 355.605 206.55 353.942 204.501 353.942C202.452 353.942 200.791 355.605 200.791 357.657C200.791 359.709 202.452 361.372 204.501 361.372Z" fill="#FF7B42"/>
<path d="M164.896 357.657C164.896 356.923 165.113 356.205 165.521 355.594C165.928 354.983 166.508 354.507 167.185 354.226C167.863 353.945 168.609 353.871 169.328 354.015C170.047 354.158 170.708 354.512 171.227 355.031C171.746 355.55 172.099 356.212 172.242 356.933C172.385 357.653 172.311 358.4 172.031 359.078C171.75 359.757 171.275 360.337 170.665 360.745C170.055 361.153 169.338 361.371 168.605 361.371C168.117 361.371 167.635 361.275 167.185 361.089C166.735 360.902 166.326 360.629 165.981 360.284C165.637 359.939 165.364 359.529 165.178 359.079C164.991 358.628 164.896 358.145 164.896 357.657V357.657Z" fill="#FF7B42"/>
<path d="M132.71 361.372C134.759 361.372 136.42 359.709 136.42 357.657C136.42 355.605 134.759 353.942 132.71 353.942C130.661 353.942 129 355.605 129 357.657C129 359.709 130.661 361.372 132.71 361.372Z" fill="#FF7B42"/>
<path d="M276.29 334.058C278.339 334.058 280 332.395 280 330.343C280 328.292 278.339 326.628 276.29 326.628C274.242 326.628 272.581 328.292 272.581 330.343C272.581 332.395 274.242 334.058 276.29 334.058Z" fill="#FF7B42"/>
<path d="M240.395 334.058C242.444 334.058 244.105 332.395 244.105 330.343C244.105 328.292 242.444 326.628 240.395 326.628C238.346 326.628 236.686 328.292 236.686 330.343C236.686 332.395 238.346 334.058 240.395 334.058Z" fill="#FF7B42"/>
<path d="M204.501 334.058C206.55 334.058 208.211 332.395 208.211 330.343C208.211 328.292 206.55 326.628 204.501 326.628C202.452 326.628 200.791 328.292 200.791 330.343C200.791 332.395 202.452 334.058 204.501 334.058Z" fill="#FF7B42"/>
<path d="M164.896 330.345C164.896 329.61 165.113 328.892 165.521 328.281C165.928 327.671 166.508 327.195 167.185 326.914C167.863 326.632 168.609 326.559 169.328 326.702C170.047 326.846 170.708 327.199 171.227 327.719C171.746 328.238 172.099 328.9 172.242 329.62C172.385 330.34 172.311 331.087 172.031 331.766C171.75 332.444 171.275 333.024 170.665 333.432C170.055 333.84 169.338 334.058 168.605 334.058C167.621 334.058 166.678 333.667 165.982 332.971C165.287 332.274 164.896 331.33 164.896 330.345V330.345Z" fill="#FF7B42"/>
<path d="M132.71 334.058C134.759 334.058 136.42 332.395 136.42 330.343C136.42 328.292 134.759 326.628 132.71 326.628C130.661 326.628 129 328.292 129 330.343C129 332.395 130.661 334.058 132.71 334.058Z" fill="#FF7B42"/>
<path d="M276.29 306.744C278.339 306.744 280 305.08 280 303.028C280 300.977 278.339 299.313 276.29 299.313C274.242 299.313 272.581 300.977 272.581 303.028C272.581 305.08 274.242 306.744 276.29 306.744Z" fill="#FF7B42"/>
<path d="M240.395 306.744C242.444 306.744 244.105 305.08 244.105 303.028C244.105 300.977 242.444 299.313 240.395 299.313C238.346 299.313 236.686 300.977 236.686 303.028C236.686 305.08 238.346 306.744 240.395 306.744Z" fill="#FF7B42"/>
<path d="M204.501 306.744C206.55 306.744 208.211 305.08 208.211 303.028C208.211 300.977 206.55 299.313 204.501 299.313C202.452 299.313 200.791 300.977 200.791 303.028C200.791 305.08 202.452 306.744 204.501 306.744Z" fill="#FF7B42"/>
<path d="M164.896 303.027C164.897 302.293 165.115 301.575 165.523 300.965C165.931 300.355 166.51 299.879 167.188 299.599C167.866 299.318 168.611 299.245 169.33 299.389C170.05 299.533 170.71 299.887 171.228 300.406C171.747 300.926 172.099 301.588 172.242 302.308C172.385 303.028 172.311 303.775 172.03 304.453C171.75 305.132 171.274 305.711 170.665 306.119C170.055 306.527 169.338 306.745 168.605 306.745C168.117 306.745 167.635 306.649 167.184 306.462C166.734 306.275 166.325 306.001 165.981 305.656C165.636 305.31 165.363 304.901 165.177 304.45C164.991 303.999 164.895 303.515 164.896 303.027V303.027Z" fill="#FF7B42"/>
<path d="M132.71 306.744C134.759 306.744 136.42 305.08 136.42 303.028C136.42 300.977 134.759 299.313 132.71 299.313C130.661 299.313 129 300.977 129 303.028C129 305.08 130.661 306.744 132.71 306.744Z" fill="#FF7B42"/>
<path d="M276.29 279.43C278.339 279.43 280 277.767 280 275.715C280 273.663 278.339 272 276.29 272C274.242 272 272.581 273.663 272.581 275.715C272.581 277.767 274.242 279.43 276.29 279.43Z" fill="#FF7B42"/>
<path d="M240.395 279.43C242.444 279.43 244.105 277.767 244.105 275.715C244.105 273.663 242.444 272 240.395 272C238.346 272 236.686 273.663 236.686 275.715C236.686 277.767 238.346 279.43 240.395 279.43Z" fill="#FF7B42"/>
<path d="M204.501 279.43C206.55 279.43 208.211 277.767 208.211 275.715C208.211 273.663 206.55 272 204.501 272C202.452 272 200.791 273.663 200.791 275.715C200.791 277.767 202.452 279.43 204.501 279.43Z" fill="#FF7B42"/>
<path d="M164.896 275.716C164.896 274.982 165.113 274.264 165.521 273.653C165.928 273.042 166.508 272.566 167.185 272.285C167.863 272.004 168.609 271.931 169.328 272.074C170.047 272.217 170.708 272.571 171.227 273.09C171.746 273.61 172.099 274.271 172.242 274.992C172.385 275.712 172.311 276.459 172.031 277.137C171.75 277.816 171.275 278.396 170.665 278.804C170.055 279.212 169.338 279.43 168.605 279.43C168.117 279.43 167.635 279.334 167.185 279.148C166.735 278.961 166.326 278.688 165.981 278.343C165.637 277.998 165.364 277.588 165.178 277.138C164.991 276.687 164.896 276.204 164.896 275.716V275.716Z" fill="#FF7B42"/>
<path d="M132.71 279.43C134.759 279.43 136.42 277.767 136.42 275.715C136.42 273.663 134.759 272 132.71 272C130.661 272 129 273.663 129 275.715C129 277.767 130.661 279.43 132.71 279.43Z" fill="#FF7B42"/>
</svg>
